<svg width="42" height="32" viewBox="0 0 42 32" fill="none" xmlns="http://www.w3.org/2000/svg">
<g clip-path="url(#clip0_18_20)">
<path d="M8.9197 0C6.55168 0 4.79937 2.00549 4.87784 4.18039C4.95322 6.2698 4.8553 8.97616 4.15123 11.1831C3.44506 13.3964 2.25059 14.7984 0.299698 14.9785V17.0108C2.25059 17.1909 3.44506 18.5929 4.15123 20.8064C4.8553 23.0133 4.95322 25.7194 4.87784 27.8089C4.79937 29.9835 6.55168 31.9893 8.92002 31.9893H33.1843C35.5525 31.9893 37.3043 29.9838 37.2258 27.8089C37.1506 25.7195 37.2484 23.0133 37.9524 20.8064C38.6591 18.5931 39.8503 17.1907 41.8012 17.0108V14.9785C39.8503 14.7984 38.6591 13.3964 37.9526 11.1831C37.2484 8.97647 37.1506 6.26996 37.2258 4.18039C37.3043 2.0058 35.5525 0 33.1843 0H8.91937H8.9197ZM28.4364 19.6915C28.4364 22.6863 26.1279 24.5024 22.2968 24.5024H15.7749C15.5884 24.5023 15.4095 24.4306 15.2777 24.303C15.1458 24.1753 15.0717 24.0023 15.0716 23.8218V8.16753C15.0716 7.987 15.1458 7.81386 15.2777 7.6862C15.4096 7.55853 15.5885 7.48679 15.7751 7.48674H22.2595C25.454 7.48674 27.5505 9.16125 27.5505 11.7319C27.5505 13.5363 26.1401 15.1517 24.3433 15.4345V15.5288C26.7895 15.7884 28.4364 17.4275 28.4364 19.6915ZM21.5854 9.64439H17.867V14.7267H20.9991C23.4201 14.7267 24.7553 13.7834 24.7553 12.0971C24.7553 10.517 23.607 9.64439 21.5854 9.64439ZM17.8672 16.7434V22.3442H21.7226C24.2432 22.3442 25.5787 21.3655 25.5787 19.5261C25.5787 17.6864 24.206 16.7431 21.5605 16.7431H17.8672V16.7434Z" fill="#7E13F8"/>
</g>
<defs>
<clipPath id="clip0_18_20">
<rect width="41.5015" height="32" fill="white" transform="translate(0.299698)"/>
</clipPath>
</defs>
</svg>
