<svg version="1.1" xmlns="http://www.w3.org/2000/svg" xmlns:xlink="http://www.w3.org/1999/xlink" width="42" height="32" viewBox="0,0,256,195.04688"><defs><clipPath id="clip-1"><rect x="0.2997" y="0" width="41.5015" height="32" id="clip0_18_20" fill="none"></rect></clipPath></defs><g fill="none" fill-rule="nonzero" stroke="none" stroke-width="1" stroke-linecap="butt" stroke-linejoin="miter" stroke-miterlimit="10" stroke-dasharray="" stroke-dashoffset="0" font-family="none" font-weight="none" font-size="none" text-anchor="none" style="mix-blend-mode: normal"><g transform="translate(-0.30749,-0.00037) scale(6.09524,6.09524)"><g clip-path="url(#clip-1)"><path d="M8.9197,0c-2.36802,0 -4.12033,2.00549 -4.04186,4.18039c0.07538,2.08941 -0.02254,4.79577 -0.72661,7.00271c-0.70617,2.2133 -1.90064,3.6153 -3.85153,3.7954v2.0323c1.95089,0.1801 3.14536,1.5821 3.85153,3.7956c0.70407,2.2069 0.80199,4.913 0.72661,7.0025c-0.07847,2.1746 1.67384,4.1804 4.04218,4.1804h24.26428c2.3682,0 4.12,-2.0055 4.0415,-4.1804c-0.0752,-2.0894 0.0226,-4.7956 0.7266,-7.0025c0.7067,-2.2133 1.8979,-3.6157 3.8488,-3.7956v-2.0323c-1.9509,-0.1801 -3.1421,-1.5821 -3.8486,-3.7954c-0.7042,-2.20663 -0.802,-4.91314 -0.7268,-7.00271c0.0785,-2.17459 -1.6733,-4.18039 -4.0415,-4.18039h-24.26493zM28.4364,19.6915c0,2.9948 -2.3085,4.8109 -6.1396,4.8109h-6.5219c-0.1865,-0.0001 -0.3654,-0.0718 -0.4972,-0.1994c-0.1319,-0.1277 -0.206,-0.3007 -0.2061,-0.4812v-15.65427c0,-0.18053 0.0742,-0.35367 0.2061,-0.48133c0.1319,-0.12767 0.3108,-0.19941 0.4974,-0.19946h6.4844c3.1945,0 5.291,1.67451 5.291,4.24516c0,1.8044 -1.4104,3.4198 -3.2072,3.7026v0.0943c2.4462,0.2596 4.0931,1.8987 4.0931,4.1627zM21.5854,9.64439h-3.7184v5.08231h3.1321c2.421,0 3.7562,-0.9433 3.7562,-2.6296c0,-1.5801 -1.1483,-2.45271 -3.1699,-2.45271zM17.8672,16.7434v5.6008h3.8554c2.5206,0 3.8561,-0.9787 3.8561,-2.8181c0,-1.8397 -1.3727,-2.783 -4.0182,-2.783h-3.6933z" fill="#6366f1"></path></g></g></g></svg>