<svg width="33" height="32" viewBox="0 0 33 32" fill="none" xmlns="http://www.w3.org/2000/svg">
<path d="M6.54912 27.201L4.27564 2H29.2656L26.9891 27.197L16.7555 30L6.54912 27.201Z" fill="#1572B6"/>
<path d="M16.7706 27.858L25.0406 25.593L26.9861 4.061H16.7706V27.858Z" fill="#33A9DC"/>
<path d="M16.7706 13.191H20.9107L21.1961 10.026H16.7706V6.935H24.6154L24.5405 7.764L23.7722 16.282H16.7706V13.191Z" fill="white"/>
<path d="M16.7899 21.218L16.7757 21.222L13.2916 20.292L13.0689 17.827H9.92795L10.3662 22.68L16.7747 24.438L16.7899 24.434V21.218Z" fill="#EBEBEB"/>
<path d="M20.6444 16.151L20.2679 20.29L16.7787 21.22V24.436L23.1922 22.68L23.2398 22.158L23.7834 16.151H20.6444Z" fill="white"/>
<path d="M16.7818 6.935V10.026H9.22445L9.16169 9.331L9.01897 7.764L8.94406 6.935H16.7818ZM16.7706 13.191V16.282H13.3301L13.2673 15.587L13.1256 14.02L13.0507 13.191H16.7706Z" fill="#EBEBEB"/>
</svg>
