<svg width="33" height="32" viewBox="0 0 33 32" fill="none" xmlns="http://www.w3.org/2000/svg">
<g clip-path="url(#clip0_18_26)">
<path d="M32.1743 14.5945L18.2267 0.816011C17.424 0.0225112 16.1213 0.0225112 15.3173 0.816011L12.4213 3.67751L16.0952 7.30701C16.9493 7.02226 17.9281 7.21326 18.6086 7.88551C19.2926 8.56201 19.4844 9.53726 19.1891 10.3838L22.7299 13.882C23.5865 13.5903 24.5752 13.7788 25.2589 14.4558C26.2155 15.4 26.2155 16.9308 25.2589 17.8755C25.0316 18.1002 24.7617 18.2784 24.4647 18.4C24.1676 18.5216 23.8492 18.5842 23.5276 18.5842C23.2061 18.5842 22.8877 18.5216 22.5906 18.4C22.2936 18.2784 22.0237 18.1002 21.7964 17.8755C21.4549 17.5378 21.2222 17.108 21.1274 16.64C21.0326 16.172 21.08 15.6867 21.2637 15.2453L17.9618 11.9833L17.9613 20.5685C18.2008 20.685 18.4196 20.8394 18.6088 21.0255C19.5649 21.9698 19.5649 23.5 18.6088 24.4463C17.6525 25.3905 16.1025 25.3905 15.1473 24.4463C14.1912 23.5003 14.1912 21.97 15.1473 21.0255C15.3765 20.7991 15.6489 20.6198 15.9487 20.498V11.8333C15.6486 11.7119 15.3761 11.5325 15.1473 11.3055C14.423 10.5905 14.2486 9.54051 14.6201 8.66151L10.9981 5.08326L1.43454 14.5308C1.0487 14.9121 0.831955 15.4291 0.831955 15.9683C0.831955 16.5074 1.0487 17.0245 1.43454 17.4058L15.3823 31.1843C16.1855 31.9778 17.4878 31.9778 18.2923 31.1843L32.1745 17.4698C32.5603 17.0884 32.7769 16.5712 32.7769 16.0321C32.7768 15.4929 32.5601 14.9758 32.1743 14.5945Z" fill="#F34F29"/>
</g>
<defs>
<clipPath id="clip0_18_26">
<rect width="32.3914" height="32" fill="white" transform="translate(0.608551)"/>
</clipPath>
</defs>
</svg>
