<svg width="33" height="32" viewBox="0 0 33 32" fill="none" xmlns="http://www.w3.org/2000/svg">
<path d="M5.97419 27.201L3.69971 2H28.6917L26.4142 27.197L16.1805 30L5.97419 27.201Z" fill="#E44F26"/>
<path d="M16.1957 27.858L24.4657 25.593L26.4112 4.061H16.1957V27.858Z" fill="#F1662A"/>
<path d="M16.1957 13.407H12.0557L11.7702 10.242H16.1957V7.151H8.35092L8.42583 7.981L9.19411 16.498H16.1957V13.407ZM16.1957 21.434L16.1816 21.438L12.6974 20.509L12.4748 18.044H9.3338L9.7721 22.896L16.1816 24.654L16.1957 24.65V21.434Z" fill="#EBEBEB"/>
<path d="M16.1846 13.407V16.498H20.0371L19.6748 20.507L16.1846 21.437V24.653L22.5991 22.896L22.6457 22.374L23.3805 14.237L23.4575 13.407H16.1846ZM16.1846 7.151V10.242H23.7419L23.8047 9.548L23.9474 7.981L24.0223 7.151H16.1846Z" fill="white"/>
</svg>
