<svg version="1.1" xmlns="http://www.w3.org/2000/svg" xmlns:xlink="http://www.w3.org/1999/xlink" width="38" height="32" viewBox="0,0,256,215.57813"><defs><clipPath id="clip-1"><rect x="0.98471" y="0" width="36.4404" height="32" id="clip0_18_22" fill="none"></rect></clipPath></defs><g fill="none" fill-rule="nonzero" stroke="none" stroke-width="1" stroke-linecap="butt" stroke-linejoin="miter" stroke-miterlimit="10" stroke-dasharray="" stroke-dashoffset="0" font-family="none" font-weight="none" font-size="none" text-anchor="none" style="mix-blend-mode: normal"><g transform="translate(-1.38045,-0.00041) scale(6.73684,6.73684)"><g clip-path="url(#clip-1)"><path d="M30.946,10.3612c-0.3879,-0.1311 -0.779,-0.2527 -1.173,-0.36445c0.0662,-0.26667 0.1271,-0.53011 0.1812,-0.78891c0.888,-4.24997 0.3075,-7.67383 -1.6752,-8.80113c-1.901,-1.0807 -5.01,0.04618 -8.1499,2.74049c-0.3094,0.26601 -0.612,0.53968 -0.9074,0.82078c-0.1978,-0.18691 -0.399,-0.37019 -0.6037,-0.54976c-3.2907,-2.88084 -6.5892,-4.09502 -8.5697,-2.96449c-1.89936,1.08407 -2.46176,4.30274 -1.66235,8.33053c0.07953,0.39891 0.16933,0.79576 0.26932,1.19017c-0.4669,0.13077 -0.91742,0.27007 -1.34858,0.41827c-3.85813,1.3263 -6.32198,3.4047 -6.32198,5.5607c0,2.2266 2.64506,4.4601 6.66346,5.8143c0.32579,0.1093 0.65428,0.2106 0.98518,0.3039c-0.10743,0.4248 -0.20284,0.8524 -0.28612,1.2825c-0.76212,3.9579 -0.16697,7.1005 1.72717,8.1777c1.9564,1.1124 5.2401,-0.0309 8.4373,-2.7867c0.2592,-0.2241 0.5128,-0.4544 0.7604,-0.6909c0.3199,0.3043 0.6484,0.5998 0.985,0.8861c3.0972,2.6277 6.1559,3.6887 8.0482,2.6086c1.9545,-1.1157 2.5898,-4.4917 1.7651,-8.599c-0.065,-0.3218 -0.1378,-0.642 -0.2185,-0.9603c0.2306,-0.0674 0.4569,-0.1367 0.6776,-0.2089c4.1775,-1.3646 6.8956,-3.5709 6.8956,-5.8273c0,-2.1638 -2.5434,-4.2563 -6.4791,-5.5922zM30.0399,20.3239c-0.1994,0.0649 -0.4035,0.1279 -0.6121,0.1888c-0.4612,-1.4396 -1.0835,-2.9703 -1.8452,-4.5519c0.7268,-1.5438 1.3253,-3.055 1.7735,-4.4852c0.3728,0.1064 0.7345,0.2186 1.0832,0.3369c3.3722,1.1447 5.4291,2.8369 5.4291,4.1409c0,1.3889 -2.2214,3.192 -5.8285,4.3705zM28.5433,23.248c0.3647,1.8161 0.4167,3.4582 0.1751,4.742c-0.2169,1.1536 -0.6534,1.9225 -1.1931,2.2306c-1.1483,0.6554 -3.6042,-0.1965 -6.2528,-2.4438c-0.3131,-0.2662 -0.6187,-0.5409 -0.9163,-0.8238c1.0269,-1.1073 2.053,-2.3944 3.0546,-3.824c1.7616,-0.1541 3.4259,-0.4062 4.9352,-0.7502c0.0745,0.2958 0.1403,0.5856 0.1973,0.8692zM13.408,30.1073c-1.1219,0.3906 -2.0156,0.4019 -2.5558,0.0948c-1.14942,-0.6536 -1.62727,-3.177 -0.97547,-6.5617c0.07749,-0.4 0.16617,-0.7977 0.26607,-1.1928c1.4926,0.3256 3.1448,0.5597 4.9106,0.7009c1.0084,1.3988 2.0641,2.6846 3.1282,3.8105c-0.2262,0.2157 -0.4576,0.4259 -0.6942,0.6305c-1.414,1.2185 -2.8307,2.083 -4.0794,2.5178zM8.15179,20.3153c-1.77689,-0.5988 -3.24433,-1.3771 -4.25014,-2.2263c-0.90389,-0.7631 -1.36011,-1.5209 -1.36011,-2.1356c0,-1.3084 1.97817,-2.9771 5.27759,-4.1113c0.40042,-0.1376 0.81948,-0.2674 1.25435,-0.3892c0.45607,1.4624 1.05422,2.9916 1.77602,4.5378c-0.7312,1.5691 -1.33789,3.1227 -1.79837,4.6024c-0.30204,-0.0853 -0.60191,-0.1779 -0.89934,-0.2778zM9.91374,8.48938c-0.68482,-3.45081 -0.23003,-6.0539 0.91456,-6.70723c1.2191,-0.69586 3.9148,0.29628 6.7561,2.78386c0.1853,0.16257 0.3676,0.32845 0.5468,0.49754c-1.0588,1.12099 -2.1049,2.3972 -3.1043,3.78779c-1.7138,0.15664 -3.3543,0.40814 -4.8626,0.74513c-0.093,-0.36685 -0.17652,-0.73609 -0.25056,-1.10709zM25.6325,12.3166c-0.3563,-0.6067 -0.7257,-1.2058 -1.1082,-1.7969c1.1627,0.145 2.2767,0.3374 3.3228,0.5726c-0.314,0.9926 -0.7055,2.0302 -1.1662,3.0941c-0.3368,-0.6301 -0.6864,-1.2535 -1.0484,-1.8698zM19.2224,6.16068c0.718,0.76701 1.4371,1.6233 2.1444,2.55242c-1.4348,-0.06682 -2.872,-0.06711 -4.3069,-0.00084c0.708,-0.92057 1.4333,-1.77572 2.1625,-2.55158zM12.7712,12.327c-0.3576,0.6113 -0.7006,1.2308 -1.0288,1.858c-0.4532,-1.0601 -0.8411,-2.1025 -1.1578,-3.1091c1.0397,-0.2293 2.1484,-0.4168 3.3037,-0.5592c-0.3867,0.5947 -0.7591,1.1984 -1.1171,1.8103zM13.9215,21.4991c-1.1936,-0.1314 -2.319,-0.3092 -3.3584,-0.5324c0.3217,-1.0245 0.7181,-2.0891 1.1812,-3.1719c0.3295,0.6276 0.6739,1.2474 1.033,1.8591c0.3692,0.6287 0.7516,1.2446 1.1442,1.8452zM19.2654,25.8542c-0.7379,-0.7849 -1.4739,-1.6532 -2.1926,-2.5871c0.6978,0.0269 1.4091,0.0407 2.1321,0.0407c0.7428,0 1.477,-0.0165 2.1997,-0.0482c-0.7096,0.9508 -1.4261,1.8204 -2.1392,2.5946zM26.6955,17.7395c0.4871,1.0947 0.8977,2.1537 1.2236,3.1607c-1.0565,0.2377 -2.1972,0.4292 -3.3992,0.5714c0.3852,-0.6021 0.7582,-1.2116 1.1187,-1.8283c0.3666,-0.6268 0.719,-1.2615 1.0569,-1.9038zM24.2902,18.8765c-0.552,0.9454 -1.1351,1.8729 -1.7482,2.781c-1.1106,0.0776 -2.2237,0.1162 -3.3371,0.1155c-1.1341,0 -2.2371,-0.0348 -3.2993,-0.1027c-0.6291,-0.906 -1.2233,-1.8351 -1.7811,-2.7854c-0.5554,-0.9452 -1.0739,-1.9109 -1.5547,-2.895c0.4796,-0.9843 0.9967,-1.9505 1.5501,-2.8965l-0.0001,0.0002c0.5531,-0.9462 1.1425,-1.8714 1.7669,-2.7735c1.0837,-0.0808 2.1949,-0.1229 3.3181,-0.1229c1.1282,0 2.241,0.0425 3.3244,0.1239c0.6181,0.9007 1.2038,1.8227 1.7559,2.7642c0.5551,0.9439 1.079,1.9054 1.5709,2.8828c-0.4868,0.9875 -1.0091,1.9575 -1.5658,2.9084zM27.5015,1.73626c1.2202,0.69389 1.6947,3.49207 0.9281,7.16154c-0.0492,0.23429 -0.1037,0.47242 -0.1637,0.71439c-1.512,-0.34414 -3.1537,-0.6 -4.8725,-0.75902c-1.0013,-1.4059 -2.0388,-2.68407 -3.0803,-3.7906c0.2729,-0.25943 0.5524,-0.51214 0.8381,-0.75789c2.6903,-2.30835 5.2047,-3.21979 6.3503,-2.56842zM19.2049,12.745c1.7971,0 3.254,1.4364 3.254,3.2084c0,1.7719 -1.4569,3.2084 -3.254,3.2084c-1.7971,0 -3.254,-1.4365 -3.254,-3.2084c0,-1.772 1.4569,-3.2084 3.254,-3.2084z" fill="#6366f1"></path></g></g></g></svg>