<svg version="1.1" xmlns="http://www.w3.org/2000/svg" xmlns:xlink="http://www.w3.org/1999/xlink" width="34" height="32" viewBox="0,0,256,240.9375"><defs><clipPath id="clip-1"><rect x="0.72478" y="0" width="32.3914" height="32" id="clip0_18_18" fill="none"></rect></clipPath></defs><g fill="none" fill-rule="nonzero" stroke="none" stroke-width="1" stroke-linecap="butt" stroke-linejoin="miter" stroke-miterlimit="10" stroke-dasharray="" stroke-dashoffset="0" font-family="none" font-weight="none" font-size="none" text-anchor="none" style="mix-blend-mode: normal"><g transform="translate(0.59876,-0.00184) scale(7.52941,7.52941)"><g clip-path="url(#clip-1)"><path d="M16.9215,6.4005c-4.3189,0 -7.01731,2.1325 -8.09786,6.3992c1.61906,-2.1327 3.50916,-2.93245 5.66796,-2.3992c1.2327,0.3035 2.1136,1.1865 3.0891,2.165c1.5877,1.5917 3.4254,3.4345 7.4387,3.4345c4.3186,0 7.0173,-2.1328 8.0978,-6.4005c-1.6196,2.1338 -3.509,2.934 -5.6682,2.4005c-1.2324,-0.3038 -2.1123,-1.1865 -3.0891,-2.165c-1.5867,-1.59175 -3.4239,-3.4345 -7.4384,-3.4345zM8.82364,16c-4.31869,0 -7.01731,2.1327 -8.09786,6.4005c1.6194,-2.1338 3.50873,-2.934 5.66799,-2.4005c1.23265,0.3037 2.11354,1.1865 3.08908,2.165c1.58765,1.5917 3.42535,3.4345 7.43865,3.4345c4.3187,0 7.0173,-2.1325 8.0979,-6.3993c-1.6196,2.1329 -3.509,2.9326 -5.6683,2.3993c-1.2324,-0.3035 -2.1123,-1.1865 -3.0891,-2.165c-1.5866,-1.5918 -3.4238,-3.4345 -7.43836,-3.4345z" fill="#6366f1"></path></g></g></g></svg>