<svg version="1.1" xmlns="http://www.w3.org/2000/svg" xmlns:xlink="http://www.w3.org/1999/xlink" width="33" height="32" viewBox="0,0,256,248.23438"><g fill="none" fill-rule="nonzero" stroke="none" stroke-width="1" stroke-linecap="butt" stroke-linejoin="miter" stroke-miterlimit="10" stroke-dasharray="" stroke-dashoffset="0" font-family="none" font-weight="none" font-size="none" text-anchor="none" style="mix-blend-mode: normal"><g transform="translate(-2.09936,-0.00402) scale(7.75758,7.75758)"><path d="M6.54912,27.201l-2.27348,-25.201h24.98996l-2.2765,25.197l-10.2336,2.803z" fill="#6366f1"></path><path d="M16.7706,27.858l8.27,-2.265l1.9455,-21.532h-10.2155z" fill="#6366f1"></path><path d="M16.7706,13.191h4.1401l0.2854,-3.165h-4.4255v-3.091h7.8448l-0.0749,0.829l-0.7683,8.518h-7.0016z" fill="#09090b"></path><path d="M16.7899,21.218l-0.0142,0.004l-3.4841,-0.93l-0.2227,-2.465h-3.14095l0.43825,4.853l6.4085,1.758l0.0152,-0.004z" fill="#09090b"></path><path d="M20.6444,16.151l-0.3765,4.139l-3.4892,0.93v3.216l6.4135,-1.756l0.0476,-0.522l0.5436,-6.007z" fill="#09090b"></path><path d="M16.7818,6.935v3.091h-7.55735l-0.06276,-0.695l-0.14272,-1.567l-0.07491,-0.829zM16.7706,13.191v3.091h-3.4405l-0.0628,-0.695l-0.1417,-1.567l-0.0749,-0.829z" fill="#09090b"></path></g></g></svg>