<svg version="1.1" xmlns="http://www.w3.org/2000/svg" xmlns:xlink="http://www.w3.org/1999/xlink" width="33" height="32" viewBox="0,0,256,248.23438"><defs><clipPath id="clip-1"><rect x="0.60855" y="0" width="32.3914" height="32" id="clip0_18_26" fill="none"></rect></clipPath></defs><g fill="none" fill-rule="nonzero" stroke="none" stroke-width="1" stroke-linecap="butt" stroke-linejoin="miter" stroke-miterlimit="10" stroke-dasharray="" stroke-dashoffset="0" font-family="none" font-weight="none" font-size="none" text-anchor="none" style="mix-blend-mode: normal"><g transform="translate(-2.36025,-0.00402) scale(7.75758,7.75758)"><g clip-path="url(#clip-1)"><path d="M32.1743,14.5945l-13.9476,-13.77849c-0.8027,-0.7935 -2.1054,-0.7935 -2.9094,0l-2.896,2.8615l3.6739,3.6295c0.8541,-0.28475 1.8329,-0.09375 2.5134,0.5785c0.684,0.6765 0.8758,1.65175 0.5805,2.49829l3.5408,3.4982c0.8566,-0.2917 1.8453,-0.1032 2.529,0.5738c0.9566,0.9442 0.9566,2.475 0,3.4197c-0.2273,0.2247 -0.4972,0.4029 -0.7942,0.5245c-0.2971,0.1216 -0.6155,0.1842 -0.9371,0.1842c-0.3215,0 -0.6399,-0.0626 -0.937,-0.1842c-0.297,-0.1216 -0.5669,-0.2998 -0.7942,-0.5245c-0.3415,-0.3377 -0.5742,-0.7675 -0.669,-1.2355c-0.0948,-0.468 -0.0474,-0.9533 0.1363,-1.3947l-3.3019,-3.262l-0.0005,8.5852c0.2395,0.1165 0.4583,0.2709 0.6475,0.457c0.9561,0.9443 0.9561,2.4745 0,3.4208c-0.9563,0.9442 -2.5063,0.9442 -3.4615,0c-0.9561,-0.946 -0.9561,-2.4763 0,-3.4208c0.2292,-0.2264 0.5016,-0.4057 0.8014,-0.5275v-8.6647c-0.3001,-0.1214 -0.5726,-0.3008 -0.8014,-0.5278c-0.7243,-0.715 -0.8987,-1.76499 -0.5272,-2.64399l-3.622,-3.57825l-9.56356,9.44754c-0.38584,0.3813 -0.60258,0.8983 -0.60258,1.4375c0,0.5391 0.21674,1.0562 0.60258,1.4375l13.94776,13.7785c0.8032,0.7935 2.1055,0.7935 2.91,0l13.8822,-13.7145c0.3858,-0.3814 0.6024,-0.8986 0.6024,-1.4377c-0.0001,-0.5392 -0.2168,-1.0563 -0.6026,-1.4376z" fill="#6366f1"></path></g></g></g></svg>