<svg version="1.1" xmlns="http://www.w3.org/2000/svg" xmlns:xlink="http://www.w3.org/1999/xlink" width="33" height="32" viewBox="0,0,256,248.23438"><g fill="none" fill-rule="nonzero" stroke="none" stroke-width="1" stroke-linecap="butt" stroke-linejoin="miter" stroke-miterlimit="10" stroke-dasharray="" stroke-dashoffset="0" font-family="none" font-weight="none" font-size="none" text-anchor="none" style="mix-blend-mode: normal"><g transform="translate(2.36059,-0.00402) scale(7.75758,7.75758)"><path d="M5.97419,27.201l-2.27448,-25.201h24.99199l-2.2775,25.197l-10.2337,2.803z" fill="#6366f1"></path><path d="M16.1957,27.858l8.27,-2.265l1.9455,-21.532h-10.2155z" fill="#6366f1"></path><path d="M16.1957,13.407h-4.14l-0.2855,-3.165h4.4255v-3.091h-7.84478l0.07491,0.83l0.76828,8.517h7.00159zM16.1957,21.434l-0.0141,0.004l-3.4842,-0.929l-0.2226,-2.465h-3.141l0.4383,4.852l6.4095,1.758l0.0141,-0.004z" fill="#09090b"></path><path d="M16.1846,13.407v3.091h3.8525l-0.3623,4.009l-3.4902,0.93v3.216l6.4145,-1.757l0.0466,-0.522l0.7348,-8.137l0.077,-0.83zM16.1846,7.151v3.091h7.5573l0.0628,-0.694l0.1427,-1.567l0.0749,-0.83z" fill="#09090b"></path></g></g></svg>