<svg width="33" height="32" viewBox="0 0 33 32" fill="none" xmlns="http://www.w3.org/2000/svg">
<g clip-path="url(#clip0_18_15)">
<path d="M0.149849 0H32.5413V32H0.149849V0Z" fill="#F7DF1E"/>
<path d="M8.66678 26.7415L11.1455 25.2595C11.6238 26.0971 12.0588 26.8059 13.1023 26.8059C14.1025 26.8059 14.7332 26.4194 14.7332 24.9159V14.6911H17.7771V24.9584C17.7771 28.073 15.929 29.4907 13.2327 29.4907C10.7977 29.4907 9.3842 28.2449 8.66665 26.7412M19.4305 26.4192L21.9089 25.0016C22.5614 26.0542 23.4094 26.8275 24.9096 26.8275C26.1709 26.8275 26.9751 26.2045 26.9751 25.3452C26.9751 24.3142 26.1489 23.949 24.7573 23.3477L23.9965 23.0252C21.8004 22.1019 20.3436 20.9419 20.3436 18.4931C20.3436 16.2376 22.083 14.5191 24.801 14.5191C26.7361 14.5191 28.1277 15.1851 29.1278 16.925L26.7576 18.4287C26.2357 17.5051 25.6706 17.14 24.8009 17.14C23.9094 17.14 23.344 17.6985 23.344 18.4287C23.344 19.3309 23.9094 19.6962 25.2139 20.2547L25.9748 20.5769C28.5623 21.6725 30.0191 22.7894 30.0191 25.3024C30.0191 28.0091 27.8665 29.4911 24.9747 29.4911C22.1482 29.4911 20.3217 28.1594 19.4304 26.4194" fill="black"/>
</g>
<defs>
<clipPath id="clip0_18_15">
<rect width="32.3914" height="32" fill="white" transform="translate(0.149849)"/>
</clipPath>
</defs>
</svg>
