<svg version="1.1" xmlns="http://www.w3.org/2000/svg" xmlns:xlink="http://www.w3.org/1999/xlink" width="33" height="32" viewBox="0,0,256,248.23438"><defs><clipPath id="clip-1"><rect x="0.14985" y="0" width="32.3914" height="32" id="clip0_18_15" fill="none"></rect></clipPath></defs><g fill="none" fill-rule="nonzero" stroke="none" stroke-width="1" stroke-linecap="butt" stroke-linejoin="miter" stroke-miterlimit="10" stroke-dasharray="" stroke-dashoffset="0" font-family="none" font-weight="none" font-size="none" text-anchor="none" style="mix-blend-mode: normal"><g transform="translate(1.19817,-0.00402) scale(7.75758,7.75758)"><g clip-path="url(#clip-1)"><path d="M0.14985,0h32.39145v32h-32.39145z" fill="#6366f1"></path><path d="M8.66678,26.7415l2.47872,-1.482c0.4783,0.8376 0.9133,1.5464 1.9568,1.5464c1.0002,0 1.6309,-0.3865 1.6309,-1.89v-10.2248h3.0439v10.2673c0,3.1146 -1.8481,4.5323 -4.5444,4.5323c-2.435,0 -3.8485,-1.2458 -4.56605,-2.7495M19.4305,26.4192l2.4784,-1.4176c0.6525,1.0526 1.5005,1.8259 3.0007,1.8259c1.2613,0 2.0655,-0.623 2.0655,-1.4823c0,-1.031 -0.8262,-1.3962 -2.2178,-1.9975l-0.7608,-0.3225c-2.1961,-0.9233 -3.6529,-2.0833 -3.6529,-4.5321c0,-2.2555 1.7394,-3.974 4.4574,-3.974c1.9351,0 3.3267,0.666 4.3268,2.4059l-2.3702,1.5037c-0.5219,-0.9236 -1.087,-1.2887 -1.9567,-1.2887c-0.8915,0 -1.4569,0.5585 -1.4569,1.2887c0,0.9022 0.5654,1.2675 1.8699,1.826l0.7609,0.3222c2.5875,1.0956 4.0443,2.2125 4.0443,4.7255c0,2.7067 -2.1526,4.1887 -5.0444,4.1887c-2.8265,0 -4.653,-1.3317 -5.5443,-3.0717" fill="#09090b"></path></g></g></g></svg>