<svg width="38" height="32" viewBox="0 0 38 32" fill="none" xmlns="http://www.w3.org/2000/svg">
<g clip-path="url(#clip0_18_22)">
<path d="M30.946 10.3612C30.5581 10.2301 30.167 10.1085 29.773 9.99675C29.8392 9.73008 29.9001 9.46664 29.9542 9.20784C30.8422 4.95787 30.2617 1.53401 28.279 0.406712C26.378 -0.673989 23.269 0.452888 20.1291 3.1472C19.8197 3.41321 19.5171 3.68688 19.2217 3.96798C19.0239 3.78107 18.8227 3.59779 18.618 3.41822C15.3273 0.537379 12.0288 -0.676796 10.0483 0.45373C8.14894 1.5378 7.58654 4.75647 8.38595 8.78426C8.46548 9.18317 8.55528 9.58002 8.65527 9.97443C8.18837 10.1052 7.73785 10.2445 7.30669 10.3927C3.44856 11.719 0.984711 13.7974 0.984711 15.9534C0.984711 18.18 3.62977 20.4135 7.64817 21.7677C7.97396 21.877 8.30245 21.9783 8.63335 22.0716C8.52592 22.4964 8.43051 22.924 8.34723 23.3541C7.58511 27.312 8.18026 30.4546 10.0744 31.5318C12.0308 32.6442 15.3145 31.5009 18.5117 28.7451C18.7709 28.521 19.0245 28.2907 19.2721 28.0542C19.592 28.3585 19.9205 28.654 20.2571 28.9403C23.3543 31.568 26.413 32.629 28.3053 31.5489C30.2598 30.4332 30.8951 27.0572 30.0704 22.9499C30.0054 22.6281 29.9326 22.3079 29.8519 21.9896C30.0825 21.9222 30.3088 21.8529 30.5295 21.7807C34.707 20.4161 37.4251 18.2098 37.4251 15.9534C37.4251 13.7896 34.8817 11.6971 30.946 10.3612ZM30.0399 20.3239C29.8405 20.3888 29.6364 20.4518 29.4278 20.5127C28.9666 19.0731 28.3443 17.5424 27.5826 15.9608C28.3094 14.417 28.9079 12.9058 29.3561 11.4756C29.7289 11.582 30.0906 11.6942 30.4393 11.8125C33.8115 12.9572 35.8684 14.6494 35.8684 15.9534C35.8684 17.3423 33.647 19.1454 30.0399 20.3239ZM28.5433 23.248C28.908 25.0641 28.96 26.7062 28.7184 27.99C28.5015 29.1436 28.065 29.9125 27.5253 30.2206C26.377 30.876 23.9211 30.0241 21.2725 27.7768C20.9594 27.5106 20.6538 27.2359 20.3562 26.953C21.3831 25.8457 22.4092 24.5586 23.4108 23.129C25.1724 22.9749 26.8367 22.7228 28.346 22.3788C28.4205 22.6746 28.4863 22.9644 28.5433 23.248ZM13.408 30.1073C12.2861 30.4979 11.3924 30.5092 10.8522 30.2021C9.70278 29.5485 9.22493 27.0251 9.87673 23.6404C9.95422 23.2404 10.0429 22.8427 10.1428 22.4476C11.6354 22.7732 13.2876 23.0073 15.0534 23.1485C16.0618 24.5473 17.1175 25.8331 18.1816 26.959C17.9554 27.1747 17.724 27.3849 17.4874 27.5895C16.0734 28.808 14.6567 29.6725 13.408 30.1073ZM8.15179 20.3153C6.3749 19.7165 4.90746 18.9382 3.90165 18.089C2.99776 17.3259 2.54154 16.5681 2.54154 15.9534C2.54154 14.645 4.51971 12.9763 7.81913 11.8421C8.21955 11.7045 8.63861 11.5747 9.07348 11.4529C9.52955 12.9153 10.1277 14.4445 10.8495 15.9907C10.1183 17.5598 9.51161 19.1134 9.05113 20.5931C8.74909 20.5078 8.44922 20.4152 8.15179 20.3153ZM9.91374 8.48938C9.22892 5.03857 9.68371 2.43548 10.8283 1.78215C12.0474 1.08629 14.7431 2.07843 17.5844 4.56601C17.7697 4.72858 17.952 4.89446 18.1312 5.06355C17.0724 6.18454 16.0263 7.46075 15.0269 8.85134C13.3131 9.00798 11.6726 9.25948 10.1643 9.59647C10.0713 9.22962 9.98778 8.86038 9.91374 8.48938ZM25.6325 12.3166C25.2762 11.7099 24.9068 11.1108 24.5243 10.5197C25.687 10.6647 26.801 10.8571 27.8471 11.0923C27.5331 12.0849 27.1416 13.1225 26.6809 14.1864C26.3441 13.5563 25.9945 12.9329 25.6325 12.3166ZM19.2224 6.16068C19.9404 6.92769 20.6595 7.78398 21.3668 8.7131C19.932 8.64628 18.4948 8.64599 17.0599 8.71226C17.7679 7.79169 18.4932 6.93654 19.2224 6.16068ZM12.7712 12.327C12.4136 12.9383 12.0706 13.5578 11.7424 14.185C11.2892 13.1249 10.9013 12.0825 10.5846 11.0759C11.6243 10.8466 12.733 10.6591 13.8883 10.5167C13.5016 11.1114 13.1292 11.7151 12.7712 12.327ZM13.9215 21.4991C12.7279 21.3677 11.6025 21.1899 10.5631 20.9667C10.8848 19.9422 11.2812 18.8776 11.7443 17.7948C12.0738 18.4224 12.4182 19.0422 12.7773 19.6539C13.1465 20.2826 13.5289 20.8985 13.9215 21.4991ZM19.2654 25.8542C18.5275 25.0693 17.7915 24.201 17.0728 23.2671C17.7706 23.294 18.4819 23.3078 19.2049 23.3078C19.9477 23.3078 20.6819 23.2913 21.4046 23.2596C20.695 24.2104 19.9785 25.08 19.2654 25.8542ZM26.6955 17.7395C27.1826 18.8342 27.5932 19.8932 27.9191 20.9002C26.8626 21.1379 25.7219 21.3294 24.5199 21.4716C24.9051 20.8695 25.2781 20.26 25.6386 19.6433C26.0052 19.0165 26.3576 18.3818 26.6955 17.7395ZM24.2902 18.8765C23.7382 19.8219 23.1551 20.7494 22.542 21.6575C21.4314 21.7351 20.3183 21.7737 19.2049 21.773C18.0708 21.773 16.9678 21.7382 15.9056 21.6703C15.2765 20.7643 14.6823 19.8352 14.1245 18.8849C13.5691 17.9397 13.0506 16.974 12.5698 15.9899C13.0494 15.0056 13.5665 14.0394 14.1199 13.0934L14.1198 13.0936C14.6729 12.1474 15.2623 11.2222 15.8867 10.3201C16.9704 10.2393 18.0816 10.1972 19.2048 10.1972C20.333 10.1972 21.4458 10.2397 22.5292 10.3211C23.1473 11.2218 23.733 12.1438 24.2851 13.0853C24.8402 14.0292 25.3641 14.9907 25.856 15.9681C25.3692 16.9556 24.8469 17.9256 24.2902 18.8765ZM27.5015 1.73626C28.7217 2.43015 29.1962 5.22833 28.4296 8.8978C28.3804 9.13209 28.3259 9.37022 28.2659 9.61219C26.7539 9.26805 25.1122 9.01219 23.3934 8.85317C22.3921 7.44727 21.3546 6.1691 20.3131 5.06257C20.586 4.80314 20.8655 4.55043 21.1512 4.30468C23.8415 1.99633 26.3559 1.08489 27.5015 1.73626ZM19.2049 12.745C21.002 12.745 22.4589 14.1814 22.4589 15.9534C22.4589 17.7253 21.002 19.1618 19.2049 19.1618C17.4078 19.1618 15.9509 17.7253 15.9509 15.9534C15.9509 14.1814 17.4078 12.745 19.2049 12.745Z" fill="#00D8FF"/>
</g>
<defs>
<clipPath id="clip0_18_22">
<rect width="36.4404" height="32" fill="white" transform="translate(0.984711)"/>
</clipPath>
</defs>
</svg>
