<svg width="34" height="32" viewBox="0 0 34 32" fill="none" xmlns="http://www.w3.org/2000/svg">
<g clip-path="url(#clip0_18_18)">
<path d="M16.9215 6.4005C12.6026 6.4005 9.90419 8.533 8.82364 12.7997C10.4427 10.667 12.3328 9.86725 14.4916 10.4005C15.7243 10.704 16.6052 11.587 17.5807 12.5655C19.1684 14.1572 21.0061 16 25.0194 16C29.338 16 32.0367 13.8672 33.1172 9.5995C31.4976 11.7333 29.6082 12.5335 27.449 12C26.2166 11.6962 25.3367 10.8135 24.3599 9.835C22.7732 8.24325 20.936 6.4005 16.9215 6.4005ZM8.82364 16C4.50495 16 1.80633 18.1327 0.725777 22.4005C2.34518 20.2667 4.23451 19.4665 6.39377 20C7.62642 20.3037 8.50731 21.1865 9.48285 22.165C11.0705 23.7567 12.9082 25.5995 16.9215 25.5995C21.2402 25.5995 23.9388 23.467 25.0194 19.2002C23.3998 21.3331 21.5104 22.1328 19.3511 21.5995C18.1187 21.296 17.2388 20.413 16.262 19.4345C14.6754 17.8427 12.8382 16 8.82364 16Z" fill="#38BDF8"/>
</g>
<defs>
<clipPath id="clip0_18_18">
<rect width="32.3914" height="32" fill="white" transform="translate(0.724777)"/>
</clipPath>
</defs>
</svg>
